HIERARCHY
ROOT Hips
{
	OFFSET 0.00000 0.00000 0.00000
	CHANNELS 6 Xposition Yposition Zposition Zrotation Yrotation Xrotation 
	JOINT LHipJoint
	{
		OFFSET 0 0 0
		CHANNELS 3 Zrotation Yrotation Xrotation
		JOINT LeftUpLeg
		{
			OFFSET 1.42489 -1.84941 0.69647
			CHANNELS 3 Zrotation Yrotation Xrotation
			JOINT LeftLeg
			{
				OFFSET 2.44443 -6.71602 0.00000
				CHANNELS 3 Zrotation Yrotation Xrotation
				JOINT LeftFoot
				{
					OFFSET 2.62838 -7.22137 0.00000
					CHANNELS 3 Zrotation Yrotation Xrotation
					JOINT LeftToeBase
					{
						OFFSET 0.24036 -0.66037 2.29953
						CHANNELS 3 Zrotation Yrotation Xrotation
						End Site
						{
							OFFSET 0.00000 -0.00000 1.19837
						}
					}
				}
			}
		}
	}
	JOINT RHipJoint
	{
		OFFSET 0 0 0
		CHANNELS 3 Zrotation Yrotation Xrotation
		JOINT RightUpLeg
		{
			OFFSET -1.37055 -1.84941 0.69647
			CHANNELS 3 Zrotation Yrotation Xrotation
			JOINT RightLeg
			{
				OFFSET -2.54834 -7.00152 0.00000
				CHANNELS 3 Zrotation Yrotation Xrotation
				JOINT RightFoot
				{
					OFFSET -2.65692 -7.29983 0.00000
					CHANNELS 3 Zrotation Yrotation Xrotation
					JOINT RightToeBase
					{
						OFFSET -0.18839 -0.51760 2.29390
						CHANNELS 3 Zrotation Yrotation Xrotation
						End Site
						{
							OFFSET -0.00000 -0.00000 1.18261
						}
					}
				}
			}
		}
	}
	JOINT LowerBack
	{
		OFFSET 0 0 0
		CHANNELS 3 Zrotation Yrotation Xrotation
		JOINT Spine
		{
			OFFSET 0.05220 2.15489 0.05011
			CHANNELS 3 Zrotation Yrotation Xrotation
			JOINT Spine1
			{
				OFFSET -0.07653 2.14219 -0.05668
				CHANNELS 3 Zrotation Yrotation Xrotation
				JOINT Neck
				{
					OFFSET 0 0 0
					CHANNELS 3 Zrotation Yrotation Xrotation
					JOINT Neck1
					{
						OFFSET 0.01370 1.58638 0.01447
						CHANNELS 3 Zrotation Yrotation Xrotation
						JOINT Head
						{
							OFFSET 0.23548 1.54190 -0.21747
							CHANNELS 3 Zrotation Yrotation Xrotation
							End Site
							{
								OFFSET 0.07132 1.59823 -0.08163
							}
						}
					}
				}
				JOINT LeftShoulder
				{
					OFFSET 0 0 0
					CHANNELS 3 Zrotation Yrotation Xrotation
					JOINT LeftArm
					{
						OFFSET 3.47056 1.45357 -0.58896
						CHANNELS 3 Zrotation Yrotation Xrotation
						JOINT LeftForeArm
						{
							OFFSET 5.19069 -0.00000 0.00000
							CHANNELS 3 Zrotation Yrotation Xrotation
							JOINT LeftHand
							{
								OFFSET 3.30016 -0.00000 0.00000
								CHANNELS 3 Zrotation Yrotation Xrotation
								JOINT LeftFingerBase
								{
									OFFSET 0 0 0
									CHANNELS 3 Zrotation Yrotation Xrotation
									JOINT LeftHandIndex1
									{
										OFFSET 0.70770 -0.00000 0.00000
										CHANNELS 3 Zrotation Yrotation Xrotation
										End Site
										{
											OFFSET 0.57056 -0.00000 0.00000
										}
									}
								}
								JOINT LThumb
								{
									OFFSET 0 0 0
									CHANNELS 3 Zrotation Yrotation Xrotation
									End Site
									{
										OFFSET 0.57928 -0.00000 0.57928
									}
								}
							}
						}
					}
				}
				JOINT RightShoulder
				{
					OFFSET 0 0 0
					CHANNELS 3 Zrotation Yrotation Xrotation
					JOINT RightArm
					{
						OFFSET -2.89018 2.03305 -0.26731
						CHANNELS 3 Zrotation Yrotation Xrotation
						JOINT RightForeArm
						{
							OFFSET -5.23924 -0.00000 0.00000
							CHANNELS 3 Zrotation Yrotation Xrotation
							JOINT RightHand
							{
								OFFSET -3.32953 -0.00000 0.00000
								CHANNELS 3 Zrotation Yrotation Xrotation
								JOINT RightFingerBase
								{
									OFFSET 0 0 0
									CHANNELS 3 Zrotation Yrotation Xrotation
									JOINT RightHandIndex1
									{
										OFFSET -0.60741 -0.00000 0.00000
										CHANNELS 3 Zrotation Yrotation Xrotation
										End Site
										{
											OFFSET -0.48971 -0.00000 0.00000
										}
									}
								}
								JOINT RThumb
								{
									OFFSET 0 0 0
									CHANNELS 3 Zrotation Yrotation Xrotation
									End Site
									{
										OFFSET -0.49719 -0.00000 0.49719
									}
								}
							}
						}
					}
				}
			}
		}
	}
}
MOTION
Frames: 11
Frame Time: .0083333
9.4109 15.9353 15.2706 -145.1430 -72.1393 121.8200 0.0000 0.0000 0.0000 6.5021 24.2668 19.1386 3.9374 12.0767 36.0038 3.1961 5.3316 -35.9375 0.7220 -5.4297 -15.1384 0.0000 0.0000 0.0000 10.9049 1.4860 -40.5039 -17.4776 -19.8468 82.6069 0.0448 -7.3176 4.0274 -0.0607 1.5902 -4.3744 -10.3625 -4.8421 1.7393 -7.6982 -6.9450 0.7972 -2.1573 -3.6095 0.0904 -10.8944 -8.8168 -5.0367 21.4702 -16.3348 15.7376 7.2949 -7.6827 8.4244 0.0000 0.0000 0.0000 -75.3281 -19.1525 50.5100 93.0830 -59.9641 -62.6696 -0.0000 0.0000 -20.7230 49.6998 -25.5595 -26.9644 -7.1250 0.0000 -0.0000 11.5182 -5.8497 -12.8835 0.0000 0.0000 0.0000 84.4022 -3.7916 38.3110 -148.3077 42.3005 -107.4668 0.0000 -0.0000 -0.0046 -20.1439 -3.1744 1.1637 7.1250 -0.0000 -0.0000 5.2711 -33.3273 1.5136
9.3875 15.8646 15.2518 -145.2060 -72.3128 122.4880 0.0000 0.0000 0.0000 6.6503 24.5881 17.8107 4.2411 12.4746 37.4322 3.3403 4.4119 -36.2815 0.7887 -5.6691 -15.8274 0.0000 0.0000 0.0000 11.0776 2.1207 -37.6064 -16.3596 -19.6792 79.3012 0.1812 -8.9297 1.8655 -0.0896 1.9305 -5.3137 -10.0552 -4.6771 1.2307 -7.4839 -6.6346 0.7154 -2.1411 -3.4528 0.2722 -11.1624 -9.1545 -4.8690 21.5584 -16.5728 14.8470 7.3245 -7.8250 8.1773 -0.0000 -0.0000 0.0000 -77.8266 -16.5430 52.7963 93.2348 -59.9604 -62.8011 -0.0000 0.0000 -20.3820 49.5215 -24.8108 -26.1829 -7.1250 0.0000 -0.0000 11.6265 -4.8328 -12.8220 -0.0000 -0.0000 0.0000 86.6705 -3.2109 39.2772 -147.8942 42.6313 -107.1876 0.0000 0.0000 2.2278 -27.3092 -2.1923 1.1315 7.1250 -0.0000 -0.0000 -0.5847 -32.4464 -0.1797
9.3650 15.7875 15.2287 -145.6440 -72.4824 123.5930 0.0000 0.0000 0.0000 6.6842 24.9644 16.3632 4.5744 12.8879 38.9503 3.4810 3.5679 -36.6560 0.8614 -5.9182 -16.5474 0.0000 0.0000 0.0000 11.2582 2.9076 -35.0413 -15.3491 -19.4733 76.2860 0.3173 -10.3570 -0.6502 -0.1356 2.3733 -6.5386 -9.7809 -4.5069 0.6892 -7.2961 -6.3186 0.6450 -2.1360 -3.2954 0.4852 -11.3545 -9.4744 -4.7567 21.7205 -16.7890 13.8540 7.3674 -7.9512 7.9084 -0.0000 -0.0000 0.0000 -79.7498 -14.3570 55.2639 92.7111 -59.9722 -62.3476 -0.0000 0.0000 -20.4363 47.5019 -23.2612 -23.3166 -7.1250 0.0000 -0.0000 10.9059 -1.9722 -11.4821 -0.0000 -0.0000 0.0000 88.1494 -2.1696 40.3411 -147.2197 43.1605 -106.7285 0.0000 0.0000 3.9878 -33.9352 -1.4228 0.9572 7.1250 -0.0000 -0.0000 -5.8981 -31.6603 -1.9335
9.3447 15.7073 15.2028 -146.5840 -72.6832 125.2360 0.0000 0.0000 0.0000 6.5221 25.3870 14.8552 4.9215 13.2948 40.4823 3.6181 2.8194 -37.0614 0.9295 -6.1417 -17.1961 0.0000 0.0000 0.0000 11.3652 3.7777 -32.8551 -14.4822 -19.2538 73.6718 0.4309 -11.5721 -3.3615 -0.1881 2.7930 -7.7029 -9.5847 -4.3300 0.1632 -7.1592 -6.0039 0.5853 -2.1384 -3.1411 0.7034 -11.4975 -9.7742 -4.6881 21.9887 -16.9922 12.7792 7.4391 -8.0685 7.6300 -0.0000 -0.0000 0.0000 -81.1841 -12.6760 57.9300 91.7260 -59.9887 -61.4947 -0.0000 0.0000 -20.9751 44.3141 -21.2987 -19.5264 -7.1250 0.0000 -0.0000 9.5432 1.7393 -9.3814 -0.0000 -0.0000 0.0000 88.8235 -0.6932 41.4020 -146.4118 43.7773 -106.1727 0.0000 0.0000 5.2302 -39.5726 -0.8004 0.6615 7.1250 -0.0000 -0.0000 -10.3186 -30.9208 -3.6017
9.3272 15.6276 15.1756 -148.1120 -72.9071 127.4930 0.0000 0.0000 0.0000 6.1314 25.8635 13.3324 5.2632 13.6742 41.9478 3.7462 2.2078 -37.4783 0.9936 -6.3439 -17.7855 0.0000 0.0000 0.0000 11.3699 4.6676 -31.0882 -13.7811 -19.0463 71.5349 0.5016 -12.5087 -6.1059 -0.2305 3.0902 -8.5299 -9.4737 -4.1525 -0.3189 -7.0808 -5.7026 0.5270 -2.1491 -2.9951 0.9013 -11.6067 -10.0401 -4.6498 22.3603 -17.1667 11.6528 7.5445 -8.1721 7.3479 0.0000 -0.0000 0.0000 -82.2163 -11.5448 60.7415 90.5304 -59.9989 -60.4593 -0.0000 0.0000 -21.9587 40.5467 -19.2722 -15.7676 -7.1250 0.0000 -0.0000 7.7176 5.4599 -7.0136 0.0000 -0.0000 0.0000 88.7156 1.1625 42.4014 -145.5852 44.3897 -105.5976 0.0000 0.0000 6.0744 -43.8897 -0.2333 0.2244 7.1250 -0.0000 -0.0000 -13.6021 -30.1476 -5.0593
9.3128 15.5518 15.1483 -150.2970 -73.1506 130.4090 0.0000 0.0000 0.0000 5.4859 26.3866 11.8504 5.5806 14.0092 43.2742 3.8618 1.7386 -37.8850 1.0499 -6.5157 -18.2883 0.0000 0.0000 0.0000 11.2518 5.4845 -29.7616 -13.2587 -18.8736 69.9271 0.5182 -13.1127 -8.6240 -0.2822 3.4166 -9.4410 -9.4533 -3.9749 -0.7220 -7.0702 -5.4191 0.4696 -2.1725 -2.8597 1.0577 -11.6994 -10.2660 -4.6394 22.8136 -17.3025 10.5112 7.6808 -8.2585 7.0708 0.0000 0.0000 0.0000 -82.9459 -10.9940 63.6191 89.3844 -59.9986 -59.4669 -0.0000 0.0000 -23.2041 36.4998 -17.3717 -12.4581 -7.1250 0.0000 -0.0000 5.5358 8.7957 -4.6465 0.0000 0.0000 0.0000 87.9011 3.3362 43.2437 -144.7982 44.9557 -105.0442 0.0000 0.0000 6.7312 -46.8295 0.3107 -0.3311 7.1250 -0.0000 -0.0000 -15.7434 -29.3377 -6.2256
9.3009 15.4841 15.1213 -153.1760 -73.3689 134.0030 0.0000 0.0000 0.0000 4.6047 26.9667 10.4548 5.8560 14.2873 44.4010 3.9599 1.4167 -38.2549 1.0999 -6.6640 -18.7236 0.0000 0.0000 0.0000 11.0222 6.1900 -28.8770 -12.9167 -18.7519 68.8665 0.4781 -13.3359 -10.8281 -0.3249 3.6636 -10.1320 -9.5162 -3.8050 -1.0315 -7.1148 -5.1641 0.4103 -2.1995 -2.7396 1.1622 -11.7823 -10.4373 -4.6596 23.2998 -17.3714 9.3920 7.8365 -8.3141 6.8005 -0.0000 0.0000 0.0000 -83.4697 -11.0130 66.4364 88.5484 -59.9920 -58.7429 -0.0000 0.0000 -24.4358 32.2910 -15.6715 -9.6873 -7.1250 0.0000 -0.0000 3.0593 11.6401 -2.3826 -0.0000 0.0000 0.0000 86.4688 5.7791 43.8567 -144.0515 45.4777 -104.5142 0.0000 0.0000 7.4079 -48.5424 0.7589 -0.8589 7.1250 -0.0000 -0.0000 -16.9264 -28.6392 -7.0265
9.2911 15.4259 15.0944 -156.6900 -73.4970 138.2130 0.0000 0.0000 0.0000 3.5366 27.6112 9.1712 6.0773 14.5028 45.2911 4.0369 1.2245 -38.5633 1.1432 -6.7897 -19.0937 0.0000 0.0000 0.0000 10.7361 6.7379 -28.4310 -12.7505 -18.6902 68.3487 0.3932 -13.2027 -12.6121 -0.3764 3.9401 -10.9083 -9.6341 -3.6522 -1.2493 -7.1968 -4.9479 0.3511 -2.2283 -2.6394 1.2171 -11.8390 -10.5450 -4.7085 23.7591 -17.3497 8.3109 7.9923 -8.3270 6.5284 -0.0000 -0.0000 0.0000 -83.8657 -11.5720 69.0669 88.2422 -59.9883 -58.4778 -0.0000 0.0000 -25.3862 28.0008 -14.2320 -7.4477 -7.1250 0.0000 -0.0000 0.3551 13.9527 -0.2590 -0.0000 -0.0000 0.0000 84.5301 8.4612 44.2023 -143.2951 45.9919 -103.9725 0.0000 0.0000 8.2723 -49.3872 0.9707 -1.1318 7.1250 -0.0000 -0.0000 -17.5006 -28.2930 -7.4377
9.2825 15.3789 15.0669 -160.7410 -73.4761 142.9310 0.0000 0.0000 0.0000 2.3159 28.3204 8.0180 6.2361 14.6533 45.9222 4.0914 1.1456 -38.7979 1.1774 -6.8870 -19.3811 0.0000 0.0000 0.0000 10.4320 7.1127 -28.4033 -12.7491 -18.6897 68.3444 0.2777 -12.7513 -13.9838 -0.4374 4.2440 -11.7642 -9.7814 -3.5258 -1.3771 -7.3044 -4.7819 0.2943 -2.2623 -2.5644 1.2254 -11.8602 -10.5908 -4.8013 24.1491 -17.2371 7.2957 8.1315 -8.2945 6.2592 0.0000 0.0000 0.0000 -84.1847 -12.6270 71.4051 88.6116 -59.9927 -58.7976 -0.0000 0.0000 -25.8597 23.7577 -13.0470 -5.6748 -7.1250 0.0000 -0.0000 -2.4525 15.7805 1.6947 0.0000 0.0000 0.0000 82.2007 11.3812 44.2455 -142.4474 46.5512 -103.3600 0.0000 0.0000 9.3223 -49.7535 0.9316 -1.1004 7.1250 -0.0000 -0.0000 -17.7824 -28.3326 -7.5512
9.2746 15.3432 15.0384 -165.1780 -73.2623 148.0100 0.0000 0.0000 0.0000 0.9574 29.0879 6.9943 6.3294 14.7401 46.2899 4.1212 1.2032 -38.9573 1.2077 -6.9720 -19.6323 0.0000 0.0000 0.0000 10.1384 7.3089 -28.7714 -12.8978 -18.7450 68.8078 0.1500 -12.0724 -14.9780 -0.5135 4.5932 -12.7519 -9.9506 -3.4281 -1.4255 -7.4307 -4.6677 0.2433 -2.3000 -2.5153 1.1963 -11.8385 -10.5844 -4.9236 24.4652 -17.0496 6.3410 8.2496 -8.2252 5.9895 0.0000 0.0000 0.0000 -84.4496 -14.1238 73.3953 89.7302 -59.9997 -59.7663 -0.0000 0.0000 -25.7733 19.8214 -12.1966 -4.3547 -7.1250 0.0000 -0.0000 -5.1438 17.0730 3.4208 0.0000 0.0000 0.0000 79.5898 14.5243 43.9773 -141.4363 47.1956 -102.6220 0.0000 0.0000 10.4939 -50.0340 0.7309 -0.8720 7.1250 -0.0000 -0.0000 -18.0449 -28.6158 -7.5455
9.2667 15.3191 15.0084 -169.7580 -72.8131 153.2160 0.0000 0.0000 0.0000 -0.5277 29.8841 6.0860 6.3566 14.7652 46.3966 4.1304 1.3731 -39.0545 1.2223 -7.0123 -19.7518 0.0000 0.0000 0.0000 9.8980 7.3549 -29.5019 -13.1767 -18.8450 69.6733 0.0253 -11.2778 -15.6837 -0.6041 4.9752 -13.8379 -10.1213 -3.3630 -1.4132 -7.5593 -4.6065 0.2014 -2.3375 -2.4925 1.1439 -11.7818 -10.5394 -5.0689 24.7200 -16.8094 5.4356 8.3487 -8.1303 5.7208 0.0000 0.0000 0.0000 -84.6640 -16.0177 75.0000 91.5931 -59.9904 -61.3796 -0.0000 0.0000 -25.1614 16.3935 -11.5985 -3.3850 -7.1250 0.0000 -0.0000 -7.5289 17.9651 4.8821 0.0000 0.0000 0.0000 76.7487 17.8977 43.4104 -140.2103 47.9448 -101.7171 0.0000 0.0000 11.5948 -50.4116 0.3909 -0.4727 7.1250 -0.0000 -0.0000 -18.4207 -29.1050 -7.4917
